<?xml version="1.0" encoding="UTF-8"?>
<svg width="22px" height="15px" viewBox="0 0 22 15" version="1.1" xmlns="http://www.w3.org/2000/svg" xmlns:xlink="http://www.w3.org/1999/xlink">
    <!-- Generator: Sketch 41 (35326) - http://www.bohemiancoding.com/sketch -->
    <title>Behance</title>
    <desc>Created with Sketch.</desc>
    <defs></defs>
    <g id="Page-1" stroke="none" stroke-width="1" fill="none" fill-rule="evenodd">
        <g id="Ketab.Digital-Home-3" transform="translate(-448.000000, -4558.000000)" fill="#86939E">
            <g id="Footer" transform="translate(0.000000, 4500.000000)">
                <g id="Follow" transform="translate(262.000000, 0.000000)">
                    <g id="Social" transform="translate(0.000000, 55.000000)">
                        <path d="M195.0175,9.38945151 C195.472234,9.1535827 195.816277,8.89116321 196.050824,8.60528033 C196.469658,8.09340796 196.67728,7.41482203 196.67728,6.57384474 C196.67728,5.7569483 196.469658,5.05613389 196.056209,4.46954915 C195.366928,3.5143422 194.197782,3.02531576 192.54578,3 L186,3 L186,16.7896812 L192.103611,16.7896812 C192.791696,16.7896812 193.428324,16.7291703 194.017085,16.6044439 C194.606444,16.4784825 195.115627,16.2487883 195.547026,15.9116564 C195.931157,15.6177466 196.250668,15.2559164 196.505558,14.8267834 C196.909434,14.1784529 197.110474,13.4449132 197.110474,12.6280168 C197.110474,11.8352012 196.933966,11.1609374 196.583342,10.607078 C196.229128,10.0519835 195.707978,9.64693134 195.0175,9.38945151 L195.0175,9.38945151 Z M188.700284,5.39450067 L191.648877,5.39450067 C192.296873,5.39450067 192.830587,5.46674322 193.250618,5.60999338 C193.735269,5.81684169 193.977595,6.24103508 193.977595,6.88504338 C193.977595,7.46236626 193.793308,7.86618355 193.427127,8.09464287 C193.058553,8.32310219 192.580484,8.43733185 191.994116,8.43733185 L188.700284,8.43733185 L188.700284,5.39450067 L188.700284,5.39450067 Z M193.36131,14.1537546 C193.035218,14.314911 192.576295,14.3964154 191.988731,14.3964154 L188.700284,14.3964154 L188.700284,10.7188378 L192.035401,10.7188378 C192.615187,10.7237774 193.067528,10.802812 193.39003,10.9522368 C193.965628,11.2214483 194.251632,11.713562 194.251632,12.4322827 C194.251632,13.280052 193.955456,13.8518178 193.36131,14.1537546 Z M200.005815,3.64277339 L205.810259,3.64277339 L205.810259,5.35868813 L200.005815,5.35868813 L200.005815,3.64277339 Z M207.028468,8.30828321 C206.574931,7.62105287 205.998734,7.11720745 205.298683,6.79983423 C204.600427,6.48060864 203.815412,6.32068711 202.94304,6.32068711 C201.475325,6.32068711 200.283443,6.79427711 199.362007,7.73528253 C198.442966,8.67875779 197.982846,10.0340773 197.982846,11.801241 C197.982846,13.6851042 198.490832,15.0472157 199.512788,15.8826359 C200.529358,16.7199084 201.705684,17.1373098 203.03997,17.1373098 C204.654875,17.1373098 205.910779,16.6414913 206.808281,15.6504718 C207.382682,15.0262222 207.707578,14.4106169 207.778181,13.8073608 L205.104224,13.8073608 C204.949854,14.1062103 204.769157,14.3396093 204.564526,14.5094101 C204.191764,14.8199913 203.705916,14.9762081 203.11177,14.9762081 C202.547541,14.9762081 202.06648,14.8477769 201.66739,14.5921495 C201.007427,14.1809227 200.662188,13.4634369 200.61851,12.4415446 L207.916397,12.4415446 C207.927765,11.56105 207.899643,10.8843164 207.828441,10.416901 C207.707578,9.61791084 207.441917,8.9146266 207.028468,8.30828321 Z M200.682532,10.6817903 C200.778265,10.0180234 201.011616,9.49194948 201.381387,9.10356863 C201.751157,8.71518779 202.274102,8.52130609 202.944236,8.52130609 C203.562914,8.52130609 204.079875,8.70345609 204.499906,9.06960846 C204.91515,9.43823067 205.149698,9.97356643 205.196966,10.6817903 L200.682532,10.6817903 L200.682532,10.6817903 Z" id="Behance"></path>
                    </g>
                </g>
            </g>
        </g>
    </g>
</svg>