<?xml version="1.0" encoding="UTF-8"?>
<svg width="15px" height="8px" viewBox="0 0 15 8" version="1.1" xmlns="http://www.w3.org/2000/svg" xmlns:xlink="http://www.w3.org/1999/xlink">
    <!-- Generator: Sketch 41 (35326) - http://www.bohemiancoding.com/sketch -->
    <title>Shape</title>
    <desc>Created with Sketch.</desc>
    <defs></defs>
    <g id="Page-1" stroke="none" stroke-width="1" fill="none" fill-rule="evenodd">
        <g id="Ketab.Digital-Home-3" transform="translate(-1175.000000, -35.000000)" fill="#424242">
            <g id="Header" transform="translate(50.000000, 11.000000)">
                <g id="Profile" transform="translate(1125.000000, 0.000000)">
                    <g id="Icons" transform="translate(0.500000, 24.000000)">
                        <path d="M6.91345455,7.50951515 C6.91684848,7.51290909 6.91812121,7.518 6.92193939,7.52139394 C6.94739394,7.54515152 6.97793939,7.55872727 7.00721212,7.57484848 C7.02290909,7.58375758 7.03606061,7.59690909 7.05260606,7.60369697 C7.10393939,7.62490909 7.15781818,7.63636364 7.21212121,7.63636364 C7.26642424,7.63636364 7.32030303,7.62490909 7.37163636,7.60412121 C7.38818182,7.59733333 7.40133333,7.58418182 7.4170303,7.57527273 C7.44630303,7.55872727 7.47684848,7.54557576 7.50230303,7.52181818 C7.50612121,7.51842424 7.50739394,7.51333333 7.51078788,7.50993939 C7.51418182,7.50654545 7.51842424,7.50569697 7.52139394,7.50230303 L13.8850303,0.714424242 C14.0453939,0.543878788 14.0364848,0.275333333 13.8659394,0.114969697 C13.6949697,-0.0453939394 13.426,-0.0369090909 13.2660606,0.134484848 L7.21212121,6.59187879 L1.15775758,0.134060606 C0.997818182,-0.0369090909 0.729272727,-0.0453939394 0.557878788,0.114545455 C0.386909091,0.274909091 0.378424242,0.543454545 0.538787879,0.714 L6.90242424,7.50187879 C6.90581818,7.50527273 6.91006061,7.50654545 6.91345455,7.50951515 L6.91345455,7.50951515 Z" id="Shape"></path>
                    </g>
                </g>
            </g>
        </g>
    </g>
</svg>