<?xml version="1.0" encoding="UTF-8"?>
<svg width="25px" height="17px" viewBox="0 0 25 17" version="1.1" xmlns="http://www.w3.org/2000/svg" xmlns:xlink="http://www.w3.org/1999/xlink">
    <!-- Generator: Sketch 41 (35326) - http://www.bohemiancoding.com/sketch -->
    <title>Google+</title>
    <desc>Created with Sketch.</desc>
    <defs></defs>
    <g id="Page-1" stroke="none" stroke-width="1" fill="none" fill-rule="evenodd">
        <g id="Ketab.Digital-Home-3" transform="translate(-262.000000, -4557.000000)" fill="#86939E">
            <g id="Footer" transform="translate(0.000000, 4500.000000)">
                <g id="Follow" transform="translate(262.000000, 0.000000)">
                    <g id="Social" transform="translate(0.000000, 55.000000)">
                        <path d="M7.8779459,8.53204989 L7.8779459,11.7577927 C7.8779459,11.7577927 10.9044736,11.7533522 12.1368432,11.7533522 C11.4693353,13.8448515 10.4318091,14.9835355 7.8779459,14.9835355 C5.29335024,14.9835355 3.27607487,12.8171812 3.27607487,10.1446041 C3.27607487,7.4726614 5.29335024,5.30630708 7.8779459,5.30630708 C9.24430883,5.30630708 10.1269436,5.80301438 10.9364353,6.49510591 C11.5842745,5.82521714 11.5301855,5.72942812 13.1786719,4.11941135 C11.779118,2.80247093 9.91919255,2 7.8779459,2 C3.52746598,2 0,5.64632639 0,10.1446041 C0,14.6428818 3.52746598,18.2898426 7.8779459,18.2898426 C14.3809238,18.2898426 15.970404,12.4352938 15.4436505,8.53204989 L7.8779459,8.53204989 Z M22.0732459,8.69317844 L22.0732459,5.87089137 L20.1235819,5.87089137 L20.1235819,8.69317844 L17.3152543,8.69317844 L17.3152543,10.7091884 L20.1235819,10.7091884 L20.1235819,13.6126741 L22.0732459,13.6126741 L22.0732459,10.7091884 L24.8028986,10.7091884 L24.8028986,8.69317844 L22.0732459,8.69317844 Z" id="Google+"></path>
                    </g>
                </g>
            </g>
        </g>
    </g>
</svg>