<?xml version="1.0" encoding="UTF-8"?>
<svg width="19px" height="19px" viewBox="0 0 19 19" version="1.1" xmlns="http://www.w3.org/2000/svg" xmlns:xlink="http://www.w3.org/1999/xlink">
    <!-- Generator: Sketch 41 (35326) - http://www.bohemiancoding.com/sketch -->
    <title>Instagram</title>
    <desc>Created with Sketch.</desc>
    <defs></defs>
    <g id="Page-1" stroke="none" stroke-width="1" fill="none" fill-rule="evenodd">
        <g id="Ketab.Digital-Home-3" transform="translate(-403.000000, -4556.000000)" fill="#86939E">
            <g id="Footer" transform="translate(0.000000, 4500.000000)">
                <g id="Follow" transform="translate(262.000000, 0.000000)">
                    <g id="Social" transform="translate(0.000000, 55.000000)">
                        <path d="M157.263938,1 L143.194033,1 C141.98223,1 141,1.99911595 141,3.23235158 L141,17.5911778 C141,18.8239 141.98223,19.8235294 143.194033,19.8235294 L157.263938,19.8235294 C158.475741,19.8235294 159.457971,18.8239 159.457971,17.5911778 L159.457971,3.23235158 C159.457971,1.99911595 158.475741,1 157.263938,1 L157.263938,1 Z M154.266903,3.94087163 C154.266903,3.61638998 154.525172,3.35300535 154.843352,3.35300535 L156.573709,3.35300535 C156.892392,3.35300535 157.150662,3.61638998 157.150662,3.94087163 L157.150662,5.70601071 C157.150662,6.03049235 156.892392,6.29387698 156.573709,6.29387698 L154.843352,6.29387698 C154.525172,6.29387698 154.266903,6.03049235 154.266903,5.70601071 L154.266903,3.94087163 L154.266903,3.94087163 Z M150.250382,6.8221865 C152.210815,6.8221865 153.800205,8.43946052 153.800205,10.4335851 C153.800205,12.428223 152.210815,14.0449836 150.250382,14.0449836 C148.290453,14.0449836 146.701063,12.428223 146.701063,10.4335851 C146.701063,8.43946052 148.290453,6.8221865 150.250382,6.8221865 L150.250382,6.8221865 Z M157.727615,17.4705241 C157.727615,17.7950057 157.469345,18.0589038 157.150662,18.0589038 L143.307309,18.0589038 C142.988626,18.0589038 142.730356,17.7950057 142.730356,17.4705241 L142.730356,8.64688234 L145.037665,8.64688234 C144.737106,9.0879104 144.635409,9.91092318 144.635409,10.4335851 C144.635409,13.5834188 147.154671,16.146413 150.250382,16.146413 C153.346597,16.146413 155.865858,13.5834188 155.865858,10.4335851 C155.865858,9.91092318 155.792858,9.1007459 155.420306,8.64688234 L157.727615,8.64688234 L157.727615,17.4705241 L157.727615,17.4705241 Z" id="Instagram"></path>
                    </g>
                </g>
            </g>
        </g>
    </g>
</svg>