<?xml version="1.0" encoding="UTF-8"?>
<svg width="24px" height="24px" viewBox="0 0 24 24" version="1.1" xmlns="http://www.w3.org/2000/svg" xmlns:xlink="http://www.w3.org/1999/xlink">
    <!-- Generator: Sketch 41 (35326) - http://www.bohemiancoding.com/sketch -->
    <title>Icon</title>
    <desc>Created with Sketch.</desc>
    <defs></defs>
    <g id="Page-1" stroke="none" stroke-width="1" fill="none" fill-rule="evenodd">
        <g id="Ketab.Digital-Home-3" transform="translate(-572.000000, -27.000000)" fill="#7F8285">
            <g id="Header" transform="translate(50.000000, 11.000000)">
                <g id="Search" transform="translate(512.000000, 13.000000)">
                    <g id="Icon-+-Text" transform="translate(10.000000, 0.000000)">
                        <g id="Icon" transform="translate(0.000000, 3.000000)">
                            <path d="M9.6,3.2 C9.8208,3.2 10,3.0208 10,2.8 C10,2.5792 9.8208,2.4 9.6,2.4 C5.6304,2.4 2.4,5.6304 2.4,9.6 C2.4,9.8208 2.5792,10 2.8,10 C3.0208,10 3.2,9.8208 3.2,9.6 C3.2,6.0712 6.0712,3.2 9.6,3.2 L9.6,3.2 Z" id="Shape"></path>
                            <path d="M9.6,19.2 C11.8672,19.2 14.0504,18.3864 15.7864,16.9176 L22.6344,23.7656 C22.7904,23.9216 22.9952,24 23.2,24 C23.4048,24 23.6096,23.9216 23.7656,23.7656 C24.0784,23.4528 24.0784,22.9472 23.7656,22.6344 L16.912,15.7808 C18.3896,14.0456 19.2,11.8808 19.2,9.6 C19.2,4.3064 14.8936,0 9.6,0 C4.3064,0 0,4.3064 0,9.6 C0,14.8936 4.3064,19.2 9.6,19.2 L9.6,19.2 Z M9.6,1.6 C14.0112,1.6 17.6,5.1888 17.6,9.6 C17.6,11.7192 16.7624,13.7232 15.2416,15.2416 L15.1296,15.356 C15.0624,15.4248 14.996,15.4936 14.924,15.5584 C13.4512,16.8752 11.5608,17.6 9.6,17.6 C5.1888,17.6 1.6,14.0112 1.6,9.6 C1.6,5.1888 5.1888,1.6 9.6,1.6 L9.6,1.6 Z" id="Shape"></path>
                        </g>
                    </g>
                </g>
            </g>
        </g>
    </g>
</svg>