<?xml version="1.0" encoding="UTF-8"?>
<svg width="14px" height="13px" viewBox="0 0 14 13" version="1.1" xmlns="http://www.w3.org/2000/svg" xmlns:xlink="http://www.w3.org/1999/xlink">
    <!-- Generator: Sketch 41 (35326) - http://www.bohemiancoding.com/sketch -->
    <title>Shape</title>
    <desc>Created with Sketch.</desc>
    <defs></defs>
    <g id="Symbols" stroke="none" stroke-width="1" fill="none" fill-rule="evenodd">
        <g id="Full-Book-Items" transform="translate(-204.000000, -351.000000)" fill="#7DC855">
            <g id="1">
                <g id="Text-+-Star" transform="translate(22.000000, 283.000000)">
                    <g id="Stars" transform="translate(122.000000, 68.000000)">
                        <g id="1" transform="translate(60.000000, 0.000000)">
                            <path d="M13.2117576,4.54151515 L9.03381818,3.94587879 L7.16715152,0.233757576 C7.02290909,-0.053030303 6.55327273,-0.053030303 6.4090303,0.233757576 L4.54236364,3.94587879 L0.364424242,4.54151515 C0.203636364,4.56442424 0.0704242424,4.67684848 0.0203636364,4.83169697 C-0.0292727273,4.98612121 0.0135757576,5.15581818 0.131090909,5.26781818 L3.14915152,8.15521212 L2.43684848,12.2296364 C2.40927273,12.3887273 2.47375758,12.5490909 2.604,12.6445455 C2.73424242,12.7404242 2.90690909,12.7544242 3.04987879,12.6797576 L6.78787879,10.7511515 L10.526303,12.6797576 C10.5873939,12.7115758 10.6544242,12.7272727 10.7210303,12.7272727 C10.809697,12.7272727 10.8979394,12.699697 10.9721818,12.6449697 C11.1024242,12.5495152 11.1669091,12.3887273 11.1393333,12.2300606 L10.4270303,8.15563636 L13.4450909,5.26824242 C13.5621818,5.15581818 13.6054545,4.98654545 13.5558182,4.83212121 C13.5057576,4.67684848 13.3725455,4.56442424 13.2117576,4.54151515 Z" id="Shape"></path>
                        </g>
                    </g>
                </g>
            </g>
        </g>
    </g>
</svg>