<?xml version="1.0" encoding="UTF-8"?>
<svg width="14px" height="13px" viewBox="0 0 14 13" version="1.1" xmlns="http://www.w3.org/2000/svg" xmlns:xlink="http://www.w3.org/1999/xlink">
    <!-- Generator: Sketch 41 (35326) - http://www.bohemiancoding.com/sketch -->
    <title>Shape</title>
    <desc>Created with Sketch.</desc>
    <defs></defs>
    <g id="Symbols" stroke="none" stroke-width="1" fill="none" fill-rule="evenodd">
        <g id="Full-Book-Items" transform="translate(-144.000000, -351.000000)" fill="#7DC855">
            <g id="1">
                <g id="Text-+-Star" transform="translate(22.000000, 283.000000)">
                    <g id="Stars" transform="translate(122.000000, 68.000000)">
                        <g id="5">
                            <path d="M13.2117576,4.54151515 L9.03381818,3.94587879 L7.16715152,0.233757576 C7.02290909,-0.053030303 6.55327273,-0.053030303 6.4090303,0.233757576 L4.54236364,3.94587879 L0.364424242,4.54151515 C0.203636364,4.56442424 0.0704242424,4.67684848 0.0203636364,4.83169697 C-0.0292727273,4.98612121 0.0135757576,5.15581818 0.131090909,5.26781818 L3.14915152,8.15521212 L2.43684848,12.2296364 C2.40927273,12.3887273 2.47375758,12.5490909 2.604,12.6445455 C2.73424242,12.7404242 2.90690909,12.7544242 3.04987879,12.6797576 L6.78787879,10.7511515 L10.526303,12.6797576 C10.5873939,12.7115758 10.6544242,12.7272727 10.7210303,12.7272727 C10.809697,12.7272727 10.8979394,12.699697 10.9721818,12.6449697 C11.1024242,12.5495152 11.1669091,12.3887273 11.1393333,12.2300606 L10.4270303,8.15563636 L13.4450909,5.26824242 C13.5621818,5.15581818 13.6054545,4.98654545 13.5558182,4.83212121 C13.5057576,4.67684848 13.3725455,4.56442424 13.2117576,4.54151515 Z M9.67654545,7.69872727 C9.57430303,7.79630303 9.52721212,7.93884848 9.55181818,8.07842424 L10.1559394,11.534303 L6.9830303,9.89715152 C6.92151515,9.86575758 6.85490909,9.85006061 6.78830303,9.85006061 C6.72169697,9.85006061 6.65509091,9.86575758 6.59357576,9.89715152 L3.42066667,11.534303 L4.02478788,8.07842424 C4.04939394,7.93884848 4.00230303,7.79630303 3.90006061,7.69872727 L1.34866667,5.25848485 L4.88175758,4.75448485 C5.01878788,4.7349697 5.138,4.64927273 5.20078788,4.5249697 L6.78787879,1.36860606 L8.37539394,4.5249697 C8.43775758,4.64884848 8.55739394,4.7349697 8.69442424,4.75448485 L12.2275152,5.25848485 L9.67654545,7.69872727 Z" id="Shape"></path>
                        </g>
                    </g>
                </g>
            </g>
        </g>
    </g>
</svg>