<?xml version="1.0" encoding="UTF-8"?>
<svg width="22px" height="18px" viewBox="0 0 22 18" version="1.1" xmlns="http://www.w3.org/2000/svg" xmlns:xlink="http://www.w3.org/1999/xlink">
    <!-- Generator: Sketch 41 (35326) - http://www.bohemiancoding.com/sketch -->
    <title>Twitter</title>
    <desc>Created with Sketch.</desc>
    <defs></defs>
    <g id="Page-1" stroke="none" stroke-width="1" fill="none" fill-rule="evenodd">
        <g id="Ketab.Digital-Home-3" transform="translate(-354.000000, -4556.000000)" fill="#86939E">
            <g id="Footer" transform="translate(0.000000, 4500.000000)">
                <g id="Follow" transform="translate(262.000000, 0.000000)">
                    <g id="Social" transform="translate(0.000000, 55.000000)">
                        <path d="M112.955747,1.5061355 C112.133002,2.02148689 111.223886,2.3962879 110.252205,2.59682929 C109.478183,1.7226745 108.371963,1.17647059 107.147258,1.17647059 C104.799723,1.17647059 102.894565,3.1921687 102.894565,5.67808211 C102.894565,6.03117208 102.931107,6.37340654 103.00419,6.70307146 C99.468492,6.51509961 96.3342002,4.72508198 94.2347064,1.99806183 C93.8681808,2.66539045 93.6588958,3.43956022 93.6588958,4.26400818 C93.6588958,5.82491726 94.4096642,7.20299658 95.551873,8.01030425 C94.8553637,7.98859321 94.1981645,7.78405242 93.6234613,7.44924542 L93.6234613,7.50409435 C93.6234613,9.68605328 95.0901172,11.5063521 97.0379071,11.9182904 C96.6813475,12.0239888 96.304856,12.0771237 95.9167375,12.0771237 C95.6426739,12.0771237 95.3752542,12.0496993 95.1161394,11.9971357 C95.6576228,13.784868 97.2278139,15.0869587 99.0897858,15.1218106 C97.6342032,16.3296297 95.7988071,17.0495219 93.8061704,17.0495219 C93.4628988,17.0495219 93.1235027,17.0289536 92.7913043,16.9878169 C94.6737619,18.2630544 96.9111181,19.0086571 99.3129124,19.0086571 C107.138953,19.0086571 111.417114,12.1502556 111.417114,6.20086096 C111.417114,6.00489031 111.413793,5.809491 111.406595,5.61751975 C112.237645,4.98275767 112.959622,4.19030493 113.527682,3.28758298 C112.76584,3.6452437 111.94531,3.88749314 111.084916,3.99604831 C111.963581,3.43956022 112.637944,2.55740663 112.955747,1.5061355" id="Twitter"></path>
                    </g>
                </g>
            </g>
        </g>
    </g>
</svg>