<?xml version="1.0" encoding="UTF-8"?>
<svg width="47px" height="35px" viewBox="0 0 47 47" version="1.1" xmlns="http://www.w3.org/2000/svg" xmlns:xlink="http://www.w3.org/1999/xlink">
    <!-- Generator: Sketch 41 (35326) - http://www.bohemiancoding.com/sketch -->
    <title>Shipping</title>
    <desc>Created with Sketch.</desc>
    <defs></defs>
    <g id="Page-1" stroke="none" stroke-width="1" fill="none" fill-rule="evenodd">
        <g id="Ketab.Digital-Home-3" transform="translate(-230.000000, -686.000000)" stroke="#7DC855" stroke-width="2">
            <g id="Feature-2" transform="translate(0.000000, 627.000000)">
                <g id="1" transform="translate(230.000000, 0.000000)">
                    <g id="Shipping" transform="translate(0.000000, 60.000000)">
                        <polyline id="Shape" points="16 6 36 6 36 22 10 22 10 12"></polyline>
                        <polyline id="Shape" points="46 22 46 16 36 11 36 22"></polyline>
                        <polyline id="Shape" points="36 22 10 22 10 30 15 30"></polyline>
                        <polyline id="Shape" points="46 22 46 30 41 30"></polyline>
                        <path d="M35,30 L21,30" id="Shape"></path>
                        <circle id="Oval" cx="38" cy="30" r="3"></circle>
                        <circle id="Oval" cx="18" cy="30" r="3"></circle>
                        <path d="M7,23 L0,23" id="Shape"></path>
                        <path d="M7,26 L2,26" id="Shape"></path>
                        <path d="M7,29 L4,29" id="Shape"></path>
                        <circle id="Oval" cx="10" cy="6" r="6"></circle>
                        <polyline id="Shape" points="8 7 9 8 12 5"></polyline>
                    </g>
                </g>
            </g>
        </g>
    </g>
</svg>