<?xml version="1.0" encoding="UTF-8"?>
<svg width="40px" height="48px" viewBox="0 0 48 48" version="1.1" xmlns="http://www.w3.org/2000/svg" xmlns:xlink="http://www.w3.org/1999/xlink">
    <!-- Generator: Sketch 41 (35326) - http://www.bohemiancoding.com/sketch -->
    <title>Support</title>
    <desc>Created with Sketch.</desc>
    <defs></defs>
    <g id="Page-1" stroke="none" stroke-width="1" fill="none" fill-rule="evenodd">
        <g id="Ketab.Digital-Home-3" transform="translate(-835.000000, -680.000000)" stroke="#7DC855" stroke-width="2">
            <g id="Feature-2" transform="translate(0.000000, 627.000000)">
                <g id="3" transform="translate(836.000000, 0.000000)">
                    <g id="Support" transform="translate(0.000000, 54.000000)">
                        <path d="M2.48,29.35 C0.843108412,26.2967012 -0.00911148069,22.8843852 1.24344979e-14,19.42 C1.42108547e-14,8.3 8.51,1 19,1 C29.49,1 38,8.3 38,19.42 C38.0091115,22.8843852 37.1568916,26.2967012 35.52,29.35" id="Shape"></path>
                        <path d="M25.91,2 C25.91,3.78 22,2.58 19,2.58 C16,2.58 12.09,3.79 12.09,2 C12.09,0.21 16,0 19,0 C22,0 25.91,0.24 25.91,2 Z" id="Shape"></path>
                        <path d="M31.22,35.2 L31.22,35.2 C33.1211002,35.3800355 34.810391,33.9901692 35,32.09 L35.73,25.09 C35.9407643,23.1804304 34.5685732,21.4596044 32.66,21.24 L32.66,21.24 C31.743558,21.1479061 30.8281005,21.4239433 30.1153248,22.0072939 C29.402549,22.5906446 28.9509408,23.4334428 28.86,24.35 L28.13,31.35 C28.0290147,32.2703399 28.2978728,33.1930908 28.8773982,33.9151532 C29.4569235,34.6372155 30.2996171,35.0994076 31.22,35.2 Z" id="Shape"></path>
                        <path d="M6.78,35.2 L6.78,35.2 C4.87889984,35.3800355 3.18960902,33.9901692 3,32.09 L2.27,25.09 C2.05923566,23.1804304 3.4314268,21.4596044 5.34,21.24 L5.34,21.24 C6.25644203,21.1479061 7.17189946,21.4239433 7.88467522,22.0072939 C8.59745097,22.5906446 9.04905925,23.4334428 9.14,24.35 L9.87,31.35 C9.97098532,32.2703399 9.70212717,33.1930908 9.12260183,33.9151532 C8.54307649,34.6372155 7.70038295,35.0994076 6.78,35.2 Z" id="Shape"></path>
                        <path d="M19,45 C23.5,42.4 28.09,39.55 31.35,35.41" id="Shape"></path>
                        <path d="M21.86,43 C21.9919392,43.232962 22.0249527,43.5091017 21.9516499,43.7666011 C21.8783472,44.0241005 21.7048506,44.2414526 21.47,44.37 L19.61,45.37 C19.0989567,45.6525314 18.4563957,45.4907984 18.14,45 L18.14,45 C18.0080608,44.767038 17.9750473,44.4908983 18.0483501,44.2333989 C18.1216528,43.9758995 18.2951494,43.7585474 18.53,43.63 L20.39,42.63 C20.8986958,42.3537812 21.5342545,42.5148475 21.85,43 L21.85,43 L21.86,43 Z" id="Shape"></path>
                    </g>
                </g>
            </g>
        </g>
    </g>
</svg>